<?xml version="1.0" encoding="iso-8859-1"?>
<!-- Generator: Adobe Illustrator 19.0.0, SVG Export Plug-In . SVG Version: 6.00 Build 0)  -->
<svg version="1.1" id="Layer_1" xmlns="http://www.w3.org/2000/svg" xmlns:xlink="http://www.w3.org/1999/xlink" x="0px" y="0px"
	 viewBox="0 0 472 472" style="enable-background:new 0 0 472 472;" xml:space="preserve">
<g>
	<path style="fill:#C39215;" d="M236,104c-4.4,0-8-3.6-8-8V8c0-4.4,3.6-8,8-8s8,3.6,8,8v88C244,100.4,240.4,104,236,104z"/>
	<path style="fill:#C39215;" d="M236,472c-4.4,0-8-3.6-8-8v-88c0-4.4,3.6-8,8-8s8,3.6,8,8v88C244,468.4,240.4,472,236,472z"/>
	<path style="fill:#C39215;" d="M96,244H8c-4.4,0-8-3.6-8-8s3.6-8,8-8h88c4.4,0,8,3.6,8,8S100.4,244,96,244z"/>
	<path style="fill:#C39215;" d="M464,244h-88c-4.4,0-8-3.6-8-8s3.6-8,8-8h88c4.4,0,8,3.6,8,8S468.4,244,464,244z"/>
	<path style="fill:#C39215;" d="M146.4,152.4c-2,0-4-0.8-5.6-2.4L87.2,96.4c-3.2-3.2-3.2-8,0-11.2s8-3.2,11.2,0l53.6,53.6
		c3.2,3.2,3.2,8,0,11.2C150.4,151.6,148.4,152.4,146.4,152.4z"/>
	<path style="fill:#C39215;" d="M379.2,385.2c-2,0-4-0.8-5.6-2.4L322.8,332c-3.2-3.2-3.2-8,0-11.2s8-3.2,11.2,0l50.8,50.8
		c3.2,3.2,3.2,8,0,11.2C383.2,384.4,381.2,385.2,379.2,385.2z"/>
	<path style="fill:#C39215;" d="M95.6,385.2c-2,0-4-0.8-5.6-2.4c-3.2-3.2-3.2-8,0-11.2l50.8-50.8c3.2-3.2,8-3.2,11.2,0s3.2,8,0,11.2
		l-50.8,50.8C99.6,384.4,97.6,385.2,95.6,385.2z"/>
	<path style="fill:#C39215;" d="M328.4,152.4c-2,0-4-0.8-5.6-2.4c-3.2-3.2-3.2-8,0-11.2L373.6,88c3.2-3.2,8-3.2,11.2,0s3.2,8,0,11.2
		L334,150C332.4,151.6,330.4,152.4,328.4,152.4z"/>
</g>
<circle style="fill:#FFE53C;" cx="236" cy="236" r="128"/>
<path style="fill:#C39215;" d="M236,372c-74.8,0-136-61.2-136-136s61.2-136,136-136s136,61.2,136,136S310.8,372,236,372z M236,116
	c-66,0-120,54-120,120s54,120,120,120s120-54,120-120S302,116,236,116z"/>
<path style="fill:#FFE53C;" d="M162,183.2c1.2-1.6,2.4-2.8,3.2-4.4"/>
<path style="fill:#C39215;" d="M162,191.2c-1.6,0-3.2-0.4-4.8-1.6c-3.6-2.8-4.4-7.6-1.6-11.2c0.4-0.4,0.8-1.2,1.2-1.6
	c0.4-0.4,0.8-1.2,1.2-1.6c2-4,6.8-5.6,10.8-3.6s5.6,6.8,3.6,10.8c-0.8,2-2,3.2-3.2,4.4c-0.4,0.4-0.8,0.8-0.8,1.2
	C166.8,190,164.4,191.2,162,191.2z"/>
<path style="fill:#FFE53C;" d="M175.2,303.6c-18.8-16.8-30.4-40.8-30.4-67.6c0-8,1.2-16,3.2-23.6"/>
<path style="fill:#C39215;" d="M175.2,311.6c-2,0-4-0.8-5.2-2c-21.2-19.2-33.2-45.2-33.2-73.6c0-8.4,1.2-16.8,3.6-25.6
	c1.2-4.4,5.6-6.8,9.6-5.6c4.4,1.2,6.8,5.6,5.6,9.6c-2,7.6-2.8,14.8-2.8,21.6c0,23.6,10,45.6,27.6,61.6c3.2,2.8,3.6,8,0.8,11.2
	C179.6,310.8,177.2,311.6,175.2,311.6z"/>
<g>
</g>
<g>
</g>
<g>
</g>
<g>
</g>
<g>
</g>
<g>
</g>
<g>
</g>
<g>
</g>
<g>
</g>
<g>
</g>
<g>
</g>
<g>
</g>
<g>
</g>
<g>
</g>
<g>
</g>
</svg>
