<?xml version="1.0" encoding="iso-8859-1"?>
<!-- Generator: Adobe Illustrator 18.0.0, SVG Export Plug-In . SVG Version: 6.00 Build 0)  -->
<!DOCTYPE svg PUBLIC "-//W3C//DTD SVG 1.1//EN" "http://www.w3.org/Graphics/SVG/1.1/DTD/svg11.dtd">
<svg version="1.1" id="Capa_1" xmlns="http://www.w3.org/2000/svg" xmlns:xlink="http://www.w3.org/1999/xlink" x="0px" y="0px"
	 viewBox="0 0 154.284 154.284" style="enable-background:new 0 0 154.284 154.284;" xml:space="preserve">
<g id="sun2">
	<g>
		<g>
			<g>
				<g>
					<g>
						<polygon style="fill:#FCDD66;" points="42.307,77.142 16.268,91.02 45.739,92.262 28.332,116.075 55.419,104.391 
							50.045,133.397 69.368,111.112 77.141,139.564 84.915,111.112 104.238,133.397 98.863,104.391 125.951,116.074 
							108.543,92.261 138.015,91.02 111.975,77.142 138.015,63.265 108.543,62.023 125.951,38.209 98.863,49.894 104.238,20.888 
							84.915,43.173 77.141,14.721 69.368,43.173 50.045,20.888 55.419,49.894 28.332,38.21 45.738,62.023 16.268,63.265 						"/>
					</g>
				</g>
				<g>
					<g>
						<path style="fill:#FCDD66;" d="M77.141,154.284l-9.601-35.143l-23.908,27.574l6.649-35.883l-33.478,14.441l21.521-29.441
							L1.872,94.296l32.187-17.154L1.872,59.988l36.451-1.535l-21.52-29.44l33.478,14.44L43.631,7.569L67.54,35.143L77.141,0
							l9.601,35.143l23.909-27.574l-6.649,35.884l33.478-14.441l-21.521,29.441l36.453,1.536l-32.189,17.154l32.189,17.155
							l-36.453,1.535l21.521,29.44l-33.478-14.44l6.647,35.883l-23.907-27.574L77.141,154.284z M71.196,103.081l5.945,21.762
							l5.946-21.762l14.737,16.998l-4.1-22.13l20.697,8.927l-13.293-18.186l22.491-0.948l-19.893-10.601l19.893-10.601
							l-22.491-0.948l13.293-18.186l-20.697,8.928l4.1-22.129L83.087,51.203l-5.946-21.762l-5.945,21.762L56.458,34.206l4.1,22.13
							l-20.697-8.927l13.293,18.185l-22.489,0.948l19.891,10.601L30.665,87.744l22.49,0.948l-13.293,18.186l20.697-8.928l-4.1,22.13
							L71.196,103.081z"/>
					</g>
				</g>
			</g>
		</g>
	</g>
	<g>
		<g>
			<g>
				<g>
					<g>
						<g>
							<polygon style="fill:#FBD009;" points="48.271,77.142 25.447,88.927 51.114,89.673 35.691,110.205 59.138,99.727 
								54.131,124.915 70.698,105.296 77.141,130.152 83.584,105.296 100.153,124.915 95.145,99.726 118.59,110.204 103.168,89.673 
								128.836,88.927 106.012,77.142 128.836,65.357 103.168,64.611 118.59,44.08 95.144,54.558 100.151,29.37 83.584,48.988 
								77.141,24.132 70.698,48.988 54.13,29.37 59.138,54.559 35.691,44.081 51.114,64.612 25.447,65.358 							"/>
						</g>
					</g>
					<g>
						<g>
							<path style="fill:#FBD009;" d="M77.141,131.87l-6.652-25.659L53.383,126.47l5.17-26.009l-24.207,10.818L50.27,90.08
								L23.767,89.31l23.564-12.168L23.767,64.976l26.503-0.771L34.346,43.007l24.207,10.818l-5.17-26.009l17.107,20.258
								l6.652-25.659l6.651,25.659L100.9,27.815L95.73,53.824l24.206-10.818l-15.924,21.198l26.505,0.771l-23.565,12.167
								l23.565,12.168l-26.505,0.77l15.924,21.198L95.73,100.46l5.171,26.009l-17.108-20.258L77.141,131.87z M70.906,104.381
								l6.235,24.053l6.235-24.053l16.027,18.979l-4.844-24.368l22.686,10.139l-14.922-19.865l24.833-0.721l-22.084-11.403
								l22.084-11.403l-24.833-0.721l14.922-19.865L94.559,55.292l4.844-24.368l-16.027,18.98L77.141,25.85l-6.235,24.053
								L54.878,30.924l4.845,24.368L37.037,45.154l14.922,19.865L27.127,65.74L49.21,77.142L27.127,88.545l24.832,0.722
								l-14.922,19.865l22.687-10.139l-4.844,24.368L70.906,104.381z"/>
						</g>
					</g>
				</g>
			</g>
		</g>
		<g>
			<circle style="fill:#FCDD66;" cx="77.141" cy="77.142" r="27.693"/>
		</g>
	</g>
</g>
<g>
</g>
<g>
</g>
<g>
</g>
<g>
</g>
<g>
</g>
<g>
</g>
<g>
</g>
<g>
</g>
<g>
</g>
<g>
</g>
<g>
</g>
<g>
</g>
<g>
</g>
<g>
</g>
<g>
</g>
</svg>
